#!OML:ASF X:\für Bonn\!DataBase\2005_08_11_Bastian_Final\c3d\Bastian.ASF
:FULLY-SPECIFIED
:DEGREES
76
root 0.181225 16.7299 1.5295 144.446 -5.22304 -172.135
lowerback 43.4665 -4.85899 7.90913
upperback 17.477 -13.1251 6.19315
thorax 0.311388 -10.7471 7.09834
lowerneck -9.45447 -4.77037 -7.35756
upperneck -15.538 -3.74061 7.96554
head -2.77047 -1.05403 3.60529
rclavicle 9.02482e-014 -7.95139e-015
rhumerus -39.5695 31.2067 -94.9112
rradius 38.188
rwrist -23.7521
rhand -35.4174 13.3936
rfingers 7.12502
rthumb -8.54757 -16.4134
lclavicle 9.02482e-014 -7.95139e-015
lhumerus 45.6623 -25.0862 74.9994
lradius 118.657
lwrist -21.7555
lhand -57.2679 -18.1092
lfingers 7.12502
lthumb -29.5472 9.55909
rfemur -69.0379 1.17198 34.6314
rtibia 128.076
rfoot 4.81474 -2.51026
rtoes -14.9326
lfemur 20.2221 -0.476321 -13.6666
ltibia 35.9576
lfoot -15.0219 -1.00368
ltoes 5.62711
77
root 0.193757 16.7911 1.5243 145.068 -5.02757 -172.198
lowerback 42.5456 -4.83074 7.87174
upperback 17.4024 -12.9385 6.13091
thorax 0.422005 -10.5399 6.88551
lowerneck -9.70297 -4.78722 -7.24665
upperneck -15.3459 -3.76568 7.91716
head -2.6767 -1.06753 3.56466
rclavicle 2.46493e-014 -3.18055e-015
rhumerus -39.3404 31.0963 -94.7207
rradius 38.4457
rwrist -23.6653
rhand -35.4968 13.3559
rfingers 7.12502
rthumb -8.62425 -16.448
lclavicle 2.46493e-014 -3.18055e-015
lhumerus 44.6415 -25.3178 75.4601
lradius 117.825
lwrist -20.7911
lhand -56.7273 -17.8888
lfingers 7.12502
lthumb -29.0311 9.86957
rfemur -66.5002 0.849362 33.9345
rtibia 126.39
rfoot 4.96343 -2.7152
rtoes -15.8333
lfemur 20.3965 -0.623214 -13.8347
ltibia 34.3833
lfoot -14.3104 -0.381206
ltoes 5.20483
78
root 0.206059 16.8534 1.51575 145.718 -4.86458 -172.214
lowerback 41.5442 -4.82793 7.87114
upperback 17.3168 -12.7655 6.0856
thorax 0.553393 -10.3328 6.6679
lowerneck -10.0368 -4.79892 -7.11585
upperneck -14.7981 -3.83901 7.6041
head -2.78517 -1.08126 3.74632
rclavicle -9.89948e-014 1.90833e-013
rhumerus -39.0898 30.9261 -94.496
rradius 38.6962
rwrist -23.4624
rhand -35.5545 13.2369
rfingers 7.12502
rthumb -8.67992 -16.5646
lclavicle -9.89948e-014 1.90833e-013
lhumerus 43.6079 -25.5488 75.9769
lradius 116.828
lwrist -19.931
lhand -56.0851 -17.4558
lfingers 7.12502
lthumb -28.4176 10.4066
rfemur -63.9046 0.538215 33.2797
rtibia 124.567
rfoot 5.26045 -3.01222
rtoes -16.3091
lfemur 20.572 -0.814843 -13.9708
ltibia 32.7385
lfoot -13.5675 0.230462
ltoes 4.87826
79
root 0.219715 17.002 1.51767 146.369 -4.72828 -172.242
lowerback 40.5164 -4.83279 7.8532
upperback 17.2008 -12.5907 6.04533
thorax 0.669959 -10.1191 6.46535
lowerneck -10.239 -4.8095 -7.04629
upperneck -14.5602 -3.87096 7.53278
head -2.66681 -1.10308 3.69595
rclavicle 7.59357e-014 -1.54257e-013
rhumerus -38.9312 30.8311 -94.2876
rradius 38.9731
rwrist -23.2972
rhand -35.6805 13.1193
rfingers 7.12502
rthumb -8.80147 -16.6772
lclavicle 7.59357e-014 -1.54257e-013
lhumerus 42.4609 -25.7896 76.5688
lradius 115.709
lwrist -19.1916
lhand -55.4297 -16.8973
lfingers 7.12502
lthumb -27.7911 11.068
rfemur -60.3623 0.175447 32.573
rtibia 122.105
rfoot 5.36666 -3.39187
rtoes -16.3065
lfemur 20.8593 -1.01482 -14.1057
ltibia 30.9191
lfoot -12.7382 0.81511
ltoes 4.69732
80
root 0.231388 17.0509 1.49924 147.036 -4.60894 -172.282
lowerback 39.324 -4.79392 7.75943
upperback 17.1902 -12.3997 6.02393
thorax 0.803395 -9.89087 6.27638
lowerneck -10.3523 -4.79923 -6.90728
upperneck -14.3628 -3.88833 7.43502
head -2.58129 -1.12268 3.62677
rclavicle -6.12257e-014 8.11041e-014
rhumerus -38.8067 30.6461 -94.0699
rradius 39.2824
rwrist -22.977
rhand -35.779 12.9236
rfingers 7.12502
rthumb -8.89651 -16.8689
lclavicle -6.12257e-014 8.11041e-014
lhumerus 41.2686 -26.0523 77.1333
lradius 114.462
lwrist -18.5475
lhand -54.8274 -16.2986
lfingers 7.12502
lthumb -27.215 11.7583
rfemur -57.681 0.00689676 31.9237
rtibia 120.073
rfoot 5.82822 -3.98409
rtoes -16.6086
lfemur 21.0088 -1.15694 -14.2308
ltibia 29.3594
lfoot -12.0322 1.32462
ltoes 4.26939
81
root 0.243799 17.0936 1.47665 147.71 -4.48885 -172.316
lowerback 38.2276 -4.76286 7.67673
upperback 17.0132 -12.1581 6.00685
thorax 0.893924 -9.63223 6.10951
lowerneck -10.3273 -4.79123 -6.7347
upperneck -14.1584 -3.93635 7.30311
head -2.51637 -1.16649 3.54179
rclavicle 1.36764e-013 -1.7175e-013
rhumerus -38.784 30.4023 -93.8801
rradius 39.5786
rwrist -22.6486
rhand -35.935 12.8077
rfingers 7.12502
rthumb -9.04709 -16.9783
lclavicle 1.36764e-013 -1.7175e-013
lhumerus 39.9322 -26.3651 77.6554
lradius 113.122
lwrist -17.9903
lhand -54.3521 -15.7337
lfingers 7.12502
lthumb -26.7603 12.3936
rfemur -54.9604 -0.0749598 31.315
rtibia 117.907
rfoot 6.29857 -4.7476
rtoes -17.5761
lfemur 21.1202 -1.31752 -14.3491
ltibia 27.8898
lfoot -11.4163 1.81974
ltoes 3.98178
82
root 0.257392 17.1317 1.45092 148.394 -4.38975 -172.338
lowerback 37.0543 -4.7576 7.70116
upperback 16.8288 -11.9066 5.97136
thorax 1.00137 -9.35373 5.85897
lowerneck -10.3076 -4.837 -6.63901
upperneck -13.9299 -4.05123 7.1982
head -2.43575 -1.24075 3.47871
rclavicle 4.96962e-014 1.59028e-014
rhumerus -38.7319 30.0519 -93.6624
rradius 39.8308
rwrist -22.3421
rhand -36.1051 12.8111
rfingers 7.12502
rthumb -9.21123 -16.9677
lclavicle 4.96962e-014 1.59028e-014
lhumerus 38.5187 -26.7737 78.1154
lradius 111.761
lwrist -17.4965
lhand -54.0008 -15.1947
lfingers 7.12502
lthumb -26.4241 12.9835
rfemur -52.225 -0.116805 30.7426
rtibia 115.661
rfoot 6.77712 -5.60345
rtoes -18.8258
lfemur 20.8984 -1.44338 -14.4118
ltibia 27.126
lfoot -11.1489 2.15581
ltoes 3.77261
83
root 0.273018 17.1647 1.42134 149.083 -4.33256 -172.392
lowerback 35.857 -4.77585 7.73476
upperback 16.6108 -11.6671 5.91876
thorax 1.09093 -9.07256 5.59281
lowerneck -10.3066 -4.90448 -6.69554
upperneck -13.624 -4.18681 7.16124
head -2.3203 -1.32236 3.46562
rclavicle -1.14898e-013 1.38354e-013
rhumerus -38.7415 29.7402 -93.4751
rradius 40.1031
rwrist -22.1081
rhand -36.3064 12.8939
rfingers 7.12502
rthumb -9.40549 -16.8762
lclavicle -1.14898e-013 1.38354e-013
lhumerus 36.9939 -27.2073 78.5644
lradius 110.341
lwrist -17.0626
lhand -53.8029 -14.7899
lfingers 7.12502
lthumb -26.2347 13.4166
rfemur -49.5124 -0.150773 30.1567
rtibia 113.306
rfoot 7.34921 -6.51429
rtoes -20.2341
lfemur 20.6071 -1.55623 -14.495
ltibia 26.5208
lfoot -10.9736 2.4351
ltoes 3.74252
84
root 0.291513 17.1923 1.38883 149.778 -4.25576 -172.418
lowerback 34.6467 -4.77968 7.81694
upperback 16.3596 -11.3828 5.8747
thorax 1.15942 -8.76235 5.3022
lowerneck -10.2374 -5.00322 -6.76923
upperneck -13.3237 -4.37045 7.13656
head -2.21469 -1.43024 3.4604
rclavicle 3.18055e-015 -1.145e-013
rhumerus -38.7907 29.2988 -93.2796
rradius 40.339
rwrist -21.8997
rhand -36.5221 13.1489
rfingers 7.12502
rthumb -9.6136 -16.6117
lclavicle 3.18055e-015 -1.145e-013
lhumerus 35.4416 -27.7575 79.0057
lradius 108.83
lwrist -16.6599
lhand -53.6833 -14.4264
lfingers 7.12502
lthumb -26.1201 13.7971
rfemur -46.8241 -0.106609 29.6705
rtibia 110.87
rfoot 7.99916 -7.48716
rtoes -21.3198
lfemur 20.2539 -1.61755 -14.4853
ltibia 26.042
lfoot -10.8561 2.60976
ltoes 3.67999
85
root 0.311632 17.2151 1.35359 150.483 -4.19273 -172.449
lowerback 33.421 -4.77694 7.88708
upperback 16.09 -11.098 5.83543
thorax 1.23211 -8.45361 5.02367
lowerneck -10.2212 -5.09753 -6.81995
upperneck -12.9481 -4.55731 7.06105
head -2.07641 -1.5419 3.42983
rclavicle -1.55052e-014 4.29375e-014
rhumerus -38.8623 28.8298 -93.0855
rradius 40.5609
rwrist -21.7391
rhand -36.7409 13.5499
rfingers 7.12502
rthumb -9.82468 -16.2009
lclavicle -1.55052e-014 4.29375e-014
lhumerus 33.8836 -28.3204 79.487
lradius 107.208
lwrist -16.3195
lhand -53.5653 -14.0967
lfingers 7.12502
lthumb -26.0071 14.1435
rfemur -44.1833 0.0306231 29.2065
rtibia 108.36
rfoot 8.66021 -8.48586
rtoes -22.057
lfemur 19.8386 -1.65846 -14.4622
ltibia 25.6764
lfoot -10.7919 2.74535
ltoes 3.60078
86
root 0.331545 17.2364 1.3174 151.185 -4.15616 -172.5
lowerback 32.2209 -4.7853 7.96852
upperback 15.7727 -10.8071 5.78385
thorax 1.25631 -8.13643 4.73729
lowerneck -10.1518 -5.1996 -6.9117
upperneck -12.5477 -4.76018 7.00076
head -1.93718 -1.6639 3.41256
rclavicle 0 -1.35174e-014
rhumerus -39.0462 28.3252 -92.9236
rradius 40.8092
rwrist -21.6825
rhand -36.9273 14.2008
rfingers 7.12502
rthumb -10.0046 -15.5414
lclavicle 0 -1.35174e-014
lhumerus 32.2753 -28.9378 79.9654
lradius 105.471
lwrist -16.0541
lhand -53.4593 -13.5964
lfingers 7.12502
lthumb -25.9056 14.6587
rfemur -41.5855 0.303489 28.7333
rtibia 105.775
rfoot 9.22978 -9.51759
rtoes -21.956
lfemur 19.3971 -1.70368 -14.4619
ltibia 25.3776
lfoot -10.7754 2.86615
ltoes 3.71713
87
root 0.352151 17.2568 1.27929 151.895 -4.14345 -172.561
lowerback 31.0117 -4.79227 8.03045
upperback 15.4333 -10.5246 5.73562
thorax 1.27919 -7.82647 4.46917
lowerneck -10.1081 -5.28839 -6.99143
upperneck -12.087 -4.95303 6.89302
head -1.77646 -1.78305 3.37482
rclavicle 6.36111e-015 4.92986e-014
rhumerus -39.2818 27.8767 -92.7975
rradius 41.0594
rwrist -21.7151
rhand -37.139 14.9193
rfingers 7.12502
rthumb -10.2087 -14.8129
lclavicle 6.36111e-015 4.92986e-014
lhumerus 30.5608 -29.5721 80.48
lradius 103.572
lwrist -15.9199
lhand -53.3628 -13.0903
lfingers 7.12502
lthumb -25.8133 15.1782
rfemur -39.0453 0.683175 28.2798
rtibia 103.127
rfoot 9.63594 -10.6509
rtoes -21.0299
lfemur 18.9257 -1.72628 -14.452
ltibia 25.127
lfoot -10.7758 2.90079
ltoes 3.95386
88
root 0.372847 17.2772 1.24108 152.587 -4.12731 -172.603
lowerback 29.5288 -4.73564 8.01915
upperback 15.21 -10.2236 5.58659
thorax 1.52485 -7.52379 4.34549
lowerneck -10.0854 -5.3889 -7.06393
upperneck -11.6144 -5.1605 6.75664
head -1.60925 -1.90899 3.32457
rclavicle 3.73715e-014 1.27222e-014
rhumerus -39.5385 27.3586 -92.6444
rradius 41.3519
rwrist -21.6923
rhand -37.2701 15.6818
rfingers 7.12502
rthumb -10.3352 -14.0443
lclavicle 3.73715e-014 1.27222e-014
lhumerus 28.7991 -30.2313 81.0403
lradius 101.56
lwrist -15.8648
lhand -53.1985 -12.466
lfingers 7.12502
lthumb -25.6558 15.8254
rfemur -36.5535 1.12655 27.9154
rtibia 100.433
rfoot 9.88204 -11.8416
rtoes -19.6025
lfemur 18.4553 -1.79235 -14.4356
ltibia 24.9146
lfoot -10.8028 2.97113
ltoes 4.35323
89
root 0.394101 17.2948 1.2011 153.308 -4.11543 -172.667
lowerback 28.3557 -4.72467 8.09546
upperback 14.8158 -9.92586 5.56395
thorax 1.52208 -7.21205 4.07469
lowerneck -10.0614 -5.47877 -7.16082
upperneck -11.0666 -5.35895 6.6296
head -1.41828 -2.03375 3.28112
rclavicle 6.2816e-014 -1.46306e-013
rhumerus -39.8057 26.8784 -92.5199
rradius 41.6428
rwrist -21.7535
rhand -37.3972 16.4308
rfingers 7.12502
rthumb -10.4578 -13.2891
lclavicle 6.2816e-014 -1.46306e-013
lhumerus 27.0235 -30.9342 81.5492
lradius 99.4608
lwrist -15.9197
lhand -52.9176 -11.5293
lfingers 7.12502
lthumb -25.3868 16.8006
rfemur -34.147 1.61612 27.5907
rtibia 97.6836
rfoot 10.0021 -12.9978
rtoes -17.9099
lfemur 17.9336 -1.83555 -14.4256
ltibia 24.7551
lfoot -10.8672 3.00088
ltoes 4.76959
90
root 0.415701 17.3088 1.15826 153.997 -4.1159 -172.713
lowerback 27.2055 -4.71621 8.1949
upperback 14.4124 -9.63991 5.54322
thorax 1.51373 -6.91221 3.80549
lowerneck -10.0183 -5.57825 -7.29618
upperneck -10.5346 -5.56384 6.51095
head -1.23516 -2.1602 3.24849
rclavicle -9.70069e-014 2.06736e-014
rhumerus -39.9923 26.3424 -92.3586
rradius 41.9024
rwrist -21.7498
rhand -37.4245 17.0982
rfingers 7.12502
rthumb -10.4842 -12.6204
lclavicle -9.70069e-014 2.06736e-014
lhumerus 25.3116 -31.708 81.9781
lradius 97.2203
lwrist -16.0416
lhand -52.638 -10.4535
lfingers 7.12502
lthumb -25.1189 17.9141
rfemur -31.7488 2.10076 27.3581
rtibia 94.8824
rfoot 10.033 -14.0067
rtoes -16.1108
lfemur 17.4287 -1.94839 -14.4234
ltibia 24.647
lfoot -10.9758 3.0626
ltoes 5.41541
